<svg xmlns="http://www.w3.org/2000/svg" width="22" height="20" viewBox="0 0 22 20">
  <metadata><?xpacket begin="﻿" id="W5M0MpCehiHzreSzNTczkc9d"?>
<x:xmpmeta xmlns:x="adobe:ns:meta/" x:xmptk="Adobe XMP Core 5.6-c142 79.160924, 2017/07/13-01:06:39        ">
   <rdf:RDF xmlns:rdf="http://www.w3.org/1999/02/22-rdf-syntax-ns#">
      <rdf:Description rdf:about=""/>
   </rdf:RDF>
</x:xmpmeta>
                                                                                                    
                                                                                                    
                                                                                                    
                                                                                                    
                                                                                                    
                                                                                                    
                                                                                                    
                                                                                                    
                                                                                                    
                                                                                                    
                                                                                                    
                                                                                                    
                                                                                                    
                                                                                                    
                                                                                                    
                                                                                                    
                                                                                                    
                                                                                                    
                                                                                                    
                                                                                                    
                           
<?xpacket end="w"?></metadata>
<defs>
    <style>
      .cls-1 {
        fill: #c8a869;
        fill-rule: evenodd;
      }
    </style>
  </defs>
  <path class="cls-1" d="M450.35,1383.85c-0.924-.61-1.83-0.77-2.6-1.98l-0.462-2.48L447,1373.85l0.9-1.72,0.462-1.05,0.754-.16,0.906-.76h0.153l1.216,0.76,0.48,4.46,0.135,0.16,1.521,0.76,5.012-4.17,1.347-1.05c1.657-2.17,4.394-5.4,6.843-6.79l1.059-.29H469v2.46l-2.889,3.54a14.407,14.407,0,0,0-2.581,2.6l-0.754.34-0.152.13-1.657,2.31c-1.368,1.07-2.275,2.31-3.508,2.93l-1.195,1.68a21.6,21.6,0,0,1-3.487,3.09l-2.14.92-0.288-.15h0Z" transform="translate(-447 -1364)"/>
</svg>
